<svg xmlns="http://www.w3.org/2000/svg" width="100%" height="100%" preserveAspectRatio="none" viewBox="0 0 196.63 196.63" class="position-absolute flower" fill="rgba(255, 255, 255, 0.3)"><path d="M196.63,0A97.71,97.71,0,0,1,99,97.83,97.71,97.71,0,0,1,196.63,0Z"></path><path d="M97.59,95v2.85H94.75A94.86,94.86,0,0,1,0,2.85V0H2.84A94.86,94.86,0,0,1,97.59,95Z"></path><path d="M94.75,98.8h2.84v2.85a94.86,94.86,0,0,1-94.75,95H0v-2.85A94.86,94.86,0,0,1,94.75,98.8Z"></path><path d="M196.63,193.78v2.85h-2.84a94.86,94.86,0,0,1-94.75-95V98.8h2.84A94.86,94.86,0,0,1,196.63,193.78Z"></path></svg>