<svg xmlns="http://www.w3.org/2000/svg" xmlns:xlink="http://www.w3.org/1999/xlink" version="1.1" x="0px" y="0px" viewBox="0 0 473.717 474.497" enable-background="new 0 0 473.717 474.497" xml:space="preserve" preserveAspectRatio="none" width="100%" height="100%" class="" fill="rgba(255, 255, 255, 1.0)"><g><path fill-rule="evenodd" clip-rule="evenodd" d="M113.198,227.551c-13.733-0.022-27.286-1.576-40.428-5.788   c-27.166-8.706-46.59-26.265-58.936-51.817c-5.99-12.397-9.719-25.491-11.685-39.107c-0.939-6.503-1.363-13.026-1.356-19.599   C0.832,75.405,0.812,39.571,0.812,3.737c0-0.94,0-1.882,0-3.114c1.198,0,1.993,0,2.788,0c38.233,0,76.467-0.085,114.699,0.039   c17.453,0.056,34.353,3.179,50.252,10.675c20.063,9.458,34.732,24.466,44.81,44.08c6.82,13.272,10.987,27.385,13.089,42.137   c0.938,6.584,1.355,13.191,1.351,19.842c-0.028,35.674-0.014,71.348-0.014,107.021c0,0.944,0,1.888,0,2.988 M217.628,217.14   c0-1.196,0-2.215,0-3.234c0-32.155-0.014-64.31,0.012-96.465c0.005-6.33-0.389-12.617-1.299-18.884   c-1.969-13.549-5.787-26.521-12.068-38.712c-9.855-19.127-24.44-33.216-44.479-41.412c-13.356-5.463-27.361-7.763-41.692-7.819   c-34.954-0.137-69.909-0.045-104.864-0.039c-0.695,0-1.39,0.09-2.332,0.155c0,1.156,0,2.177,0,3.198   c0,32.235-0.036,64.471,0.037,96.705c0.012,5.105,0.283,10.235,0.831,15.31c1.532,14.182,5.352,27.755,11.699,40.549   c11.141,22.454,28.45,37.864,52.461,45.502c12.232,3.891,24.837,5.254,37.606,5.27c33.835,0.039,67.67,0.014,101.505,0.008   C215.822,217.273,216.599,217.194,217.628,217.14z"></path><path fill-rule="evenodd" clip-rule="evenodd" d="M227.755,247.345c0,1.23,0,2.1,0,2.969c0,37.11,0.021,74.221-0.01,111.331   c-0.012,14.961-1.814,29.669-6.835,43.846c-9.094,25.677-26.338,43.998-50.716,55.773c-13.282,6.416-27.311,10.366-41.951,12.034   c-4.992,0.569-10.04,0.9-15.062,0.911c-36.311,0.075-72.622,0.04-108.933,0.04c-1.032,0-2.063,0-3.389,0   c-0.029-1.066-0.076-1.992-0.076-2.918c-0.004-31.593-0.038-63.185,0.018-94.776c0.018-9.673-0.13-19.373,0.522-29.013   c1.529-22.617,8.308-43.395,23.019-61.097c10.758-12.944,24.242-22.174,39.692-28.592c16.802-6.981,34.326-10.505,52.538-10.507   c35.911-0.005,71.821-0.002,107.732-0.002C225.329,247.345,226.355,247.345,227.755,247.345z M217.628,257.486   c-1.195,0-2.21,0-3.224,0c-32.235,0-64.469,0.005-96.704-0.005c-6.004-0.001-11.979,0.309-17.935,1.146   c-13.718,1.927-26.859,5.711-39.222,12.018C40.732,280.75,26.35,295.876,18.21,316.708c-5.068,12.973-7.207,26.529-7.26,40.367   c-0.135,34.954-0.045,69.908-0.038,104.862c0.001,0.69,0.096,1.381,0.158,2.221c1.149,0,2.1,0,3.051,0   c32.794,0,65.589,0.037,98.383-0.039c4.864-0.012,9.75-0.348,14.584-0.897c13.523-1.533,26.482-5.184,38.746-11.115   c22.798-11.028,38.558-28.312,46.378-52.572c4.015-12.453,5.392-25.293,5.404-38.305c0.032-33.595,0.011-67.189,0.011-100.783   C217.628,259.578,217.628,258.71,217.628,257.486z"></path><path fill-rule="evenodd" clip-rule="evenodd" d="M247.677,113.902c-0.004-13.497,1.316-26.818,5.23-39.793   c8.428-27.936,26.098-47.949,52.226-60.612c13.422-6.504,27.618-10.471,42.428-12.116c5.074-0.564,10.203-0.875,15.308-0.886   c36.156-0.074,72.312-0.039,108.469-0.039c0.946,0,1.893,0,3.204,0c0,1.213,0,2.081,0,2.949c0,37.996,0.033,75.992-0.016,113.989   c-0.02,16.062-2.611,31.685-8.814,46.576c-9.218,22.126-24.914,38.231-46.132,49.092c-13.358,6.839-27.561,10.981-42.399,13.058   c-6.429,0.899-12.881,1.294-19.368,1.291c-35.597-0.014-71.193-0.006-106.79-0.006c-1.016,0-2.032,0-3.342,0 M464.414,10.546   c-1.334,0-2.286,0-3.237,0c-32.472,0-64.942-0.037-97.413,0.039c-5.023,0.012-10.07,0.323-15.065,0.873   c-13.198,1.453-25.873,4.941-37.908,10.582c-24.188,11.337-40.586,29.513-48.259,55.282c-3.568,11.983-4.721,24.275-4.714,36.722   c0.019,33.431,0.007,66.862,0.007,100.292c0,0.867,0,1.734,0,2.919c1.244,0,2.262,0,3.279,0c31.831,0,63.662-0.014,95.493,0.012   c6.567,0.005,13.1-0.298,19.607-1.241c14.032-2.032,27.453-5.997,40.011-12.643c18.942-10.026,32.79-24.741,40.728-44.78   c5.248-13.249,7.436-27.086,7.455-41.274c0.048-34.63,0.016-69.261,0.016-103.892C464.414,12.575,464.414,11.711,464.414,10.546z"></path></g><path fill-rule="evenodd" clip-rule="evenodd" d="M250.937,247.327c36.156,0,72.312-0.035,108.469,0.039  c5.104,0.011,10.233,0.322,15.308,0.886c14.81,1.646,29.006,5.612,42.428,12.116c26.128,12.663,43.798,32.676,52.226,60.612  c3.914,12.975,5.234,26.296,5.23,39.794c-0.011,36.876-0.003,73.752-0.003,110.629c0,0.858,0,1.716,0,2.874c-1.31,0-2.326,0-3.342,0  c-35.597,0-71.193-0.007-106.79,0.006c-6.487,0.003-12.939-0.392-19.368-1.291c-14.838-2.077-29.041-6.219-42.399-13.058  c-21.218-10.861-36.914-26.967-46.132-49.092c-6.203-14.891-8.794-30.514-8.814-46.576c-0.049-37.997-0.016-75.993-0.016-113.989  c0-0.868,0-1.736,0-2.949C249.044,247.327,249.991,247.327,250.937,247.327z M257.86,260.309c0,34.631-0.032,69.261,0.016,103.892  c0.02,14.188,2.207,28.025,7.455,41.274c7.939,20.039,21.786,34.754,40.728,44.78c12.558,6.646,25.979,10.611,40.011,12.643  c6.508,0.943,13.04,1.246,19.607,1.241c31.831-0.026,63.662-0.012,95.493-0.012c1.017,0,2.035,0,3.279,0c0-1.185,0-2.052,0-2.919  c0-33.431-0.012-66.861,0.007-100.292c0.007-12.447-1.146-24.739-4.714-36.722c-7.673-25.769-24.071-43.944-48.259-55.282  c-12.035-5.641-24.71-9.129-37.908-10.582c-4.995-0.55-10.042-0.861-15.065-0.873c-32.471-0.075-64.941-0.039-97.413-0.039  c-0.951,0-1.903,0-3.237,0C257.86,258.582,257.86,259.446,257.86,260.309z"></path></svg>