<svg xmlns="http://www.w3.org/2000/svg" width="7.5%" height="15%" preserveAspectRatio="none" viewBox="0 0 204 204" class="" fill="rgba(255, 255, 255, 0.3)"><path d="M203.22,100.42c-11.8-9.11-30.84-17-50.28-21,10.59-15.49,19.09-33.7,21.74-47.76a2,2,0,0,0-2.34-2.34C158.27,32,140.06,40.47,124.58,51.07c-4-19.45-11.9-38.5-21-50.29a2,2,0,0,0-3.16,0c-9.11,11.8-17,30.84-21,50.29C63.93,40.47,45.72,32,31.66,29.32a2,2,0,0,0-2.33,2.34C32,45.73,40.47,63.94,51.06,79.42c-19.45,4-38.49,11.89-50.28,21a2,2,0,0,0,0,3.16c11.8,9.11,30.84,17,50.28,21C40.47,140.07,32,158.28,29.33,172.34a2,2,0,0,0,2.33,2.33C45.73,172,64,163.53,79.42,152.93c4,19.45,11.89,38.5,21,50.29a2,2,0,0,0,3.16,0c9.11-11.8,17-30.84,21-50.28,15.49,10.59,33.7,19.08,47.76,21.73a2,2,0,0,0,2.34-2.33c-2.65-14.07-11.15-32.28-21.75-47.76,19.45-4,38.5-11.9,50.29-21A2,2,0,0,0,203.22,100.42ZM170.11,33.89c-4.43,18.48-18.62,43.91-33.36,59.4A21.68,21.68,0,0,1,121.11,100h-4.72a14.34,14.34,0,0,0-2.81-6.75l-2.83-2.83A14.6,14.6,0,0,0,104,87.61V82.89a21.67,21.67,0,0,1,6.71-15.63C126.19,52.51,151.62,38.32,170.11,33.89ZM112.52,102A10.52,10.52,0,1,1,102,91.48,10.54,10.54,0,0,1,112.52,102ZM102,5.37c8.24,11.71,15.53,30.16,19,48.22a129.23,129.23,0,0,0-13,10.77,25.3,25.3,0,0,0-4,4.82h0A22.89,22.89,0,0,0,101.85,73c0-1-2-4-2-4h0A34,34,0,0,0,96,64.35,130.14,130.14,0,0,0,83,53.59C86.47,35.54,93.75,17.08,102,5.37ZM33.89,33.89c18.48,4.43,43.9,18.61,59.39,33.36A21.65,21.65,0,0,1,100,82.89v4.72a14.57,14.57,0,0,0-6.75,2.82l-2.83,2.82a14.42,14.42,0,0,0-2.8,6.75H82.89a21.67,21.67,0,0,1-15.63-6.71C52.51,77.82,38.32,52.39,33.89,33.89ZM5.37,102c11.71-8.24,30.16-15.53,48.22-19a129.23,129.23,0,0,0,10.77,13A20.54,20.54,0,0,0,68,99.2c1.18.76,4.85,2.8,4.85,2.8s-3.73,2.07-4.93,2.85A20.29,20.29,0,0,0,64.34,108a130.09,130.09,0,0,0-10.75,13C35.54,117.53,17.08,110.25,5.37,102Zm28.52,68.1c4.43-18.47,18.61-43.89,33.35-59.38A21.69,21.69,0,0,1,82.85,104h4.77a14.42,14.42,0,0,0,2.8,6.75l2.83,2.82a14.37,14.37,0,0,0,6.75,2.81v4.73a21.65,21.65,0,0,1-6.71,15.63C77.82,151.48,52.39,165.67,33.89,170.1ZM102,198.63c-8.24-11.71-15.53-30.16-19-48.22a129.23,129.23,0,0,0,13-10.77A20.63,20.63,0,0,0,99.87,135c.56-1,2-4,2-4l2.65,4.56a25.85,25.85,0,0,0,3.45,4.1,129.12,129.12,0,0,0,13,10.75C117.53,168.47,110.25,186.92,102,198.63Zm68.11-28.53c-18.51-4.43-44-18.64-59.4-33.34A21.73,21.73,0,0,1,104,121.11v-4.73a14.56,14.56,0,0,0,6.75-2.81l2.83-2.82a14.58,14.58,0,0,0,2.81-6.75h4.76a21.64,21.64,0,0,1,15.59,6.71C151.49,126.19,165.68,151.62,170.11,170.1ZM150.41,121a129.23,129.23,0,0,0-10.77-13,21.44,21.44,0,0,0-2.79-2.49c-1.42-1-6-3.46-6-3.46s4.57-2.48,6-3.44a17.52,17.52,0,0,0,2.8-2.51,129.17,129.17,0,0,0,10.76-13c18.05,3.47,36.51,10.75,48.22,19C186.92,110.24,168.47,117.53,150.41,121Z"></path></svg>
 