<svg xmlns="http://www.w3.org/2000/svg" width="100%" height="100%" preserveAspectRatio="none" viewBox="0 0 262.21 106.88" class="" fill="rgba(255, 255, 255, 0.3)"><path d="M181,35.63A39.64,39.64,0,0,1,151.13,22.1a26.6,26.6,0,0,0-40,0A39.64,39.64,0,0,1,81.27,35.63,39.64,39.64,0,0,1,51.45,22.1a26.6,26.6,0,0,0-40.05,0,6.51,6.51,0,1,1-9.79-8.57,39.62,39.62,0,0,1,59.63,0,26.63,26.63,0,0,0,20,9.08,26.61,26.61,0,0,0,20-9.08,39.62,39.62,0,0,1,59.63,0,26.63,26.63,0,0,0,20,9.08,26.61,26.61,0,0,0,20-9.08,39.62,39.62,0,0,1,59.63,0,6.51,6.51,0,1,1-9.79,8.57,26.6,26.6,0,0,0-40.05,0A39.64,39.64,0,0,1,181,35.63Z"></path><path d="M181,71.25a39.61,39.61,0,0,1-29.82-13.53,26.62,26.62,0,0,0-40,0,39.62,39.62,0,0,1-59.63,0,26.62,26.62,0,0,0-40.05,0,6.51,6.51,0,0,1-9.79-8.57,39.63,39.63,0,0,1,59.63,0,26.6,26.6,0,0,0,40.05,0,39.63,39.63,0,0,1,59.63,0,26.6,26.6,0,0,0,40.05,0,39.63,39.63,0,0,1,59.63,0,6.51,6.51,0,1,1-9.79,8.57,26.62,26.62,0,0,0-40.05,0A39.6,39.6,0,0,1,181,71.25Z"></path><path d="M181,106.88a39.61,39.61,0,0,1-29.82-13.53,26.6,26.6,0,0,0-40,0,39.62,39.62,0,0,1-59.63,0,26.6,26.6,0,0,0-40.05,0,6.51,6.51,0,0,1-9.79-8.57,39.62,39.62,0,0,1,59.63,0,26.62,26.62,0,0,0,40.05,0,39.62,39.62,0,0,1,59.63,0,26.62,26.62,0,0,0,40.05,0,39.62,39.62,0,0,1,59.63,0,6.51,6.51,0,1,1-9.79,8.57,26.6,26.6,0,0,0-40.05,0A39.6,39.6,0,0,1,181,106.88Z"></path></svg>